# xmcd CD database file
# Copyright (C) 1995-1998 Ti Kan
#
# Track frame offsets:
#	183
#	12828
#	24613
#	35858
#	45535
#	58025
#	71148
#	80848
#	90620
#	103465
#	114405
#	126578
#	136233
#	145665
#	156688
#	163825
#
# Disc length: 2416 seconds
#
# Revision: 1
# Processed by: cddbd v1.4PL0 Copyright (c) Steve Scherf et al.
# Submitted via: CDex 1.30Release
#
DISCID=f1096e10
DTITLE=16 Greatest Truck Driver Hits - Various Artists
DYEAR=1900
DGENRE=Country
TTITLE0=How Fast Them Trucks Can Go - Claude Gray
TTITLE1=Give Me Forty Acres - Willis Brothers
TTITLE2=Woman Behind the Man Behind the Wheel - Red Sovine
TTITLE3=Gear Shiftin' - Pete Drake
TTITLE4=Widow Maker - Jimmy Martin
TTITLE5=Rollin' on Rubber Wheels - Stanley Brothers
TTITLE6=Tombstone Every Mile - Charlie Moore
TTITLE7=Truck Drivin' Man - Hylo Brown
TTITLE8=Girl on the Billboard - Del Reeves
TTITLE9=Remington Ride - Reno and Smiley
TTITLE10=That's Truck Drivin' - Slim Jacobs
TTITLE11=Diesel Smoke and Dangerous Curves - Bobby Sykes
TTITLE12=Truck Driver's Queen - Moore and Napier
TTITLE13=Radar Blues - Coleman Wilson
TTITLE14=Big Footed Dan - Benny Martin
TTITLE15=Convoy - Tommy Hill Music Festival
EXTD=ID3G:   2
EXTT0=
EXTT1=
EXTT2=
EXTT3=
EXTT4=
EXTT5=
EXTT6=
EXTT7=
EXTT8=
EXTT9=
EXTT10=
EXTT11=
EXTT12=
EXTT13=
EXTT14=
EXTT15=
PLAYORDER=
